<mxfile host="app.diagrams.net" modified="2023-10-16T08:52:53.077Z" agent="Mozilla/5.0 (Macintosh; Intel Mac OS X 10_15_7) AppleWebKit/537.36 (KHTML, like Gecko) Chrome/118.0.0.0 Safari/537.36" version="22.0.4" etag="5Fd5uE9EXmSGN13VjFQn" type="github">
  <diagram name="第 1 页" id="__mT4-eTXneNjicop5YK">
    <mxGraphModel>
      <root>
        <mxCell id="0" />
        <mxCell id="1" parent="0" />
      </root>
    </mxGraphModel>
  </diagram>
</mxfile>
